<svg width="613.2200073242187px" height="348.32000732421875px" xmlns="http://www.w3.org/2000/svg" viewBox="-56.610003662109364 -99.16000366210938 613.2200073242187 348.32000732421875" style="background: rgba(0, 0, 0, 0);" preserveAspectRatio="xMidYMid"><defs><linearGradient id="editing-gradient-gradient" x1="0.0019026509541272274" x2="0.9980973490458728" y1="0.45642212862617093" y2="0.5435778713738291" gradientUnits="objectBoundingBox"><stop offset="0" stop-color="#8105d8"></stop><stop offset="1" stop-color="#fe59d7"></stop></linearGradient></defs><g><g transform="translate(31.905010223388672, 130.21000289916992)"><path d="M75.30-15.10L75.30 0L11.27-34.04L11.27-48.56L75.30-82.67L75.30-68.00L22.47-41.41L75.30-15.10ZM120.68 0L106.09 0L106.09-104.50L152.70-104.50L152.70-104.50Q174.30-104.50 179.80-88.16L179.80-88.16L179.80-88.16Q181.82-82.09 181.86-73.75L181.86-73.75L181.86-73.75Q181.89-65.40 179.94-59.73L179.94-59.73L179.94-59.73Q177.99-54.05 174.92-50.98L174.92-50.98L174.92-50.98Q171.85-47.91 167.15-45.96L167.15-45.96L189.34 0L174.38 0L153.64-43.36L120.68-43.29L120.68 0ZM120.68-93.44L120.68-54.34L151.47-54.34L151.47-54.34Q160.72-54.34 164.01-59.33L164.01-59.33L164.01-59.33Q167.29-64.32 167.29-73.42L167.29-73.42L167.29-73.42Q167.22-89.75 158.70-92.64L158.70-92.64L158.70-92.64Q156.24-93.51 153.13-93.44L153.13-93.44L120.68-93.44ZM280.25-29.34L280.25-29.34L280.25-29.34Q280.25 1.59 246.06 1.59L246.06 1.59L246.06 1.59Q223.37 1.59 206.54-8.17L206.54-8.17L211.67-19.29L211.67-19.29Q218.17-15.46 227.46-12.79L227.46-12.79L227.46-12.79Q236.74-10.12 245.52-10.12L245.52-10.12L245.52-10.12Q254.30-10.12 258.78-12.36L258.78-12.36L258.78-12.36Q266.80-16.40 266.80-28.83L266.80-28.83L266.80-28.83Q266.80-33.96 266.30-35.70L266.30-35.70L266.30-35.70Q264.64-41.48 254.09-44.80L254.09-44.80L228.87-53.19L228.87-53.19Q216.65-57.16 212.57-63.27L212.57-63.27L212.57-63.27Q208.49-69.38 208.49-78.91L208.49-78.91L208.49-78.91Q208.56-92.64 218.53-99.87L218.53-99.87L218.53-99.87Q227.13-106.01 243.54-106.09L243.54-106.09L243.54-106.09Q266.88-106.09 278.58-98.79L278.58-98.79L275.04-87.44L275.04-87.44Q262.18-94.38 246.06-94.38L246.06-94.38L246.06-94.38Q234.86-94.38 229.01-91.49L229.01-91.49L229.01-91.49Q223.16-88.60 222.72-82.17L222.72-82.17L222.72-82.17Q222.58-80.14 222.58-78.55L222.58-78.55L222.58-78.55Q222.58-73.35 224.78-70.53L224.78-70.53L224.78-70.53Q226.99-67.71 233.35-65.54L233.35-65.54L259.65-56.66L259.65-56.66Q270.49-52.97 275.37-47.01L275.37-47.01L275.37-47.01Q280.25-41.05 280.25-29.34ZM294.99 0L328.01-108.83L341.24-108.83L308.50 0L294.99 0ZM424.92-34.11L360.89 0L360.89-14.67L413.72-41.26L360.89-67.57L360.89-82.67L424.92-48.63L424.92-34.11Z" fill="url(#editing-gradient-gradient)"></path></g></g><style>text {
  font-size: 64px;
  font-family: Arial Black;
  dominant-baseline: central;
  text-anchor: middle;
}</style></svg>