<svg id="visual" viewBox="0 0 960 540" width="960" height="540" xmlns="http://www.w3.org/2000/svg" xmlns:xlink="http://www.w3.org/1999/xlink" version="1.1"><rect x="0" y="0" width="960" height="540" fill="#121212"></rect><path d="M0 362L11.5 362.3C23 362.7 46 363.3 68.8 366.3C91.7 369.3 114.3 374.7 137.2 378.5C160 382.3 183 384.7 205.8 388.2C228.7 391.7 251.3 396.3 274.2 394.8C297 393.3 320 385.7 342.8 379.5C365.7 373.3 388.3 368.7 411.2 368.3C434 368 457 372 480 375.7C503 379.3 526 382.7 548.8 386.3C571.7 390 594.3 394 617.2 392.5C640 391 663 384 685.8 383.7C708.7 383.3 731.3 389.7 754.2 395C777 400.3 800 404.7 822.8 399.2C845.7 393.7 868.3 378.3 891.2 377.5C914 376.7 937 390.3 948.5 397.2L960 404L960 541L948.5 541C937 541 914 541 891.2 541C868.3 541 845.7 541 822.8 541C800 541 777 541 754.2 541C731.3 541 708.7 541 685.8 541C663 541 640 541 617.2 541C594.3 541 571.7 541 548.8 541C526 541 503 541 480 541C457 541 434 541 411.2 541C388.3 541 365.7 541 342.8 541C320 541 297 541 274.2 541C251.3 541 228.7 541 205.8 541C183 541 160 541 137.2 541C114.3 541 91.7 541 68.8 541C46 541 23 541 11.5 541L0 541Z" fill="#fe59d7"></path><path d="M0 413L11.5 416.8C23 420.7 46 428.3 68.8 429.7C91.7 431 114.3 426 137.2 421.7C160 417.3 183 413.7 205.8 412.3C228.7 411 251.3 412 274.2 411.7C297 411.3 320 409.7 342.8 406C365.7 402.3 388.3 396.7 411.2 393.3C434 390 457 389 480 393C503 397 526 406 548.8 407.3C571.7 408.7 594.3 402.3 617.2 403C640 403.7 663 411.3 685.8 414.7C708.7 418 731.3 417 754.2 417C777 417 800 418 822.8 413.8C845.7 409.7 868.3 400.3 891.2 397.5C914 394.7 937 398.3 948.5 400.2L960 402L960 541L948.5 541C937 541 914 541 891.2 541C868.3 541 845.7 541 822.8 541C800 541 777 541 754.2 541C731.3 541 708.7 541 685.8 541C663 541 640 541 617.2 541C594.3 541 571.7 541 548.8 541C526 541 503 541 480 541C457 541 434 541 411.2 541C388.3 541 365.7 541 342.8 541C320 541 297 541 274.2 541C251.3 541 228.7 541 205.8 541C183 541 160 541 137.2 541C114.3 541 91.7 541 68.8 541C46 541 23 541 11.5 541L0 541Z" fill="#c844b6"></path><path d="M0 421L11.5 420.7C23 420.3 46 419.7 68.8 422.5C91.7 425.3 114.3 431.7 137.2 431.7C160 431.7 183 425.3 205.8 423.8C228.7 422.3 251.3 425.7 274.2 428.2C297 430.7 320 432.3 342.8 434.2C365.7 436 388.3 438 411.2 442.2C434 446.3 457 452.7 480 453.2C503 453.7 526 448.3 548.8 442C571.7 435.7 594.3 428.3 617.2 424.8C640 421.3 663 421.7 685.8 426.3C708.7 431 731.3 440 754.2 445.3C777 450.7 800 452.3 822.8 447.3C845.7 442.3 868.3 430.7 891.2 427.3C914 424 937 429 948.5 431.5L960 434L960 541L948.5 541C937 541 914 541 891.2 541C868.3 541 845.7 541 822.8 541C800 541 777 541 754.2 541C731.3 541 708.7 541 685.8 541C663 541 640 541 617.2 541C594.3 541 571.7 541 548.8 541C526 541 503 541 480 541C457 541 434 541 411.2 541C388.3 541 365.7 541 342.8 541C320 541 297 541 274.2 541C251.3 541 228.7 541 205.8 541C183 541 160 541 137.2 541C114.3 541 91.7 541 68.8 541C46 541 23 541 11.5 541L0 541Z" fill="#952f93"></path><path d="M0 453L11.5 454.2C23 455.3 46 457.7 68.8 461.2C91.7 464.7 114.3 469.3 137.2 468C160 466.7 183 459.3 205.8 459.2C228.7 459 251.3 466 274.2 466.2C297 466.3 320 459.7 342.8 460C365.7 460.3 388.3 467.7 411.2 472C434 476.3 457 477.7 480 478.7C503 479.7 526 480.3 548.8 479.2C571.7 478 594.3 475 617.2 473.5C640 472 663 472 685.8 474.3C708.7 476.7 731.3 481.3 754.2 478.3C777 475.3 800 464.7 822.8 461.2C845.7 457.7 868.3 461.3 891.2 461.3C914 461.3 937 457.7 948.5 455.8L960 454L960 541L948.5 541C937 541 914 541 891.2 541C868.3 541 845.7 541 822.8 541C800 541 777 541 754.2 541C731.3 541 708.7 541 685.8 541C663 541 640 541 617.2 541C594.3 541 571.7 541 548.8 541C526 541 503 541 480 541C457 541 434 541 411.2 541C388.3 541 365.7 541 342.8 541C320 541 297 541 274.2 541C251.3 541 228.7 541 205.8 541C183 541 160 541 137.2 541C114.3 541 91.7 541 68.8 541C46 541 23 541 11.5 541L0 541Z" fill="#661a70"></path><path d="M0 509L11.5 505.7C23 502.3 46 495.7 68.8 492.7C91.7 489.7 114.3 490.3 137.2 495.2C160 500 183 509 205.8 510.2C228.7 511.3 251.3 504.7 274.2 501.3C297 498 320 498 342.8 497.7C365.7 497.3 388.3 496.7 411.2 495.8C434 495 457 494 480 495.8C503 497.7 526 502.3 548.8 505.2C571.7 508 594.3 509 617.2 505.7C640 502.3 663 494.7 685.8 492.2C708.7 489.7 731.3 492.3 754.2 494.7C777 497 800 499 822.8 500.3C845.7 501.7 868.3 502.3 891.2 499.8C914 497.3 937 491.7 948.5 488.8L960 486L960 541L948.5 541C937 541 914 541 891.2 541C868.3 541 845.7 541 822.8 541C800 541 777 541 754.2 541C731.3 541 708.7 541 685.8 541C663 541 640 541 617.2 541C594.3 541 571.7 541 548.8 541C526 541 503 541 480 541C457 541 434 541 411.2 541C388.3 541 365.7 541 342.8 541C320 541 297 541 274.2 541C251.3 541 228.7 541 205.8 541C183 541 160 541 137.2 541C114.3 541 91.7 541 68.8 541C46 541 23 541 11.5 541L0 541Z" fill="#3b064d"></path></svg>